<?xml version="1.0" encoding="UTF-8"?>
<svg width="32" height="32" viewBox="0 0 32 32" fill="none" xmlns="http://www.w3.org/2000/svg">
  <!-- Brain Icon with Flow Elements -->
  <g transform="translate(1, 1) scale(0.95)">
    <!-- Brain Outline -->
    <path d="M16 3C11 3 8 7 8 11C8 13 9 14.5 10 15.5C7 16.5 5 19.5 5 22.5C5 26.5 9 30 13 30C15 30 17 29 18.5 27.5C20 29 22 30 24 30C28 30 32 26.5 32 22.5C32 19.5 30 16.5 27 15.5C28 14.5 29 13 29 11C29 7 26 3 21 3C19 3 17.5 3.5 16.5 4.5C15.5 3.5 14 3 16 3Z" stroke="url(#brain-gradient)" stroke-width="2" fill="none"/>
    
    <!-- Flow Lines -->
    <path d="M10 10C15 14 19 10 23 14" stroke="url(#flow-gradient)" stroke-width="1.5" stroke-dasharray="2 2"/>
    <path d="M9 17C16 21 23 17 28 21" stroke="url(#flow-gradient)" stroke-width="1.5" stroke-dasharray="2 2"/>
    <path d="M12 25C16 22 20 26 24 22" stroke="url(#flow-gradient)" stroke-width="1.5" stroke-dasharray="2 2"/>
    
    <!-- Pulse Circles -->
    <circle cx="16.5" cy="16" r="1.5" fill="url(#pulse-gradient)">
      <animate attributeName="opacity" values="0.2;1;0.2" dur="3s" repeatCount="indefinite"/>
    </circle>
    <circle cx="13" cy="19" r="1" fill="url(#pulse-gradient)">
      <animate attributeName="opacity" values="0.2;1;0.2" dur="2s" repeatCount="indefinite"/>
    </circle>
    <circle cx="20" cy="19" r="1" fill="url(#pulse-gradient)">
      <animate attributeName="opacity" values="0.2;1;0.2" dur="4s" repeatCount="indefinite"/>
    </circle>
  </g>
  
  <!-- Gradients -->
  <defs>
    <linearGradient id="brain-gradient" x1="0%" y1="0%" x2="100%" y2="100%">
      <stop offset="0%" stop-color="#3498db"/>
      <stop offset="100%" stop-color="#6C63FF"/>
    </linearGradient>
    
    <linearGradient id="flow-gradient" x1="0%" y1="0%" x2="100%" y2="0%">
      <stop offset="0%" stop-color="#3498db"/>
      <stop offset="100%" stop-color="#6C63FF"/>
    </linearGradient>
    
    <linearGradient id="pulse-gradient" x1="0%" y1="0%" x2="100%" y2="100%">
      <stop offset="0%" stop-color="#6C63FF"/>
      <stop offset="100%" stop-color="#3498db"/>
    </linearGradient>
  </defs>
</svg>
